<svg xmlns="http://www.w3.org/2000/svg" viewBox="0 0 829.55 956.24"><defs><style>.cls-1{fill:#00544c;stroke:#aa8941;}.cls-1,.cls-2,.cls-3{stroke-miterlimit:10;stroke-width:5px;}.cls-2{fill:#00a89b;}.cls-2,.cls-3{stroke:#ffd15f;}.cls-3{fill:none;}</style></defs><g id="Layer_3" data-name="Layer 3"><path class="cls-1" d="M1072.81,950.47c-8.93-11.28-55,26.41-56.56,28.27-3.9,4.56-40.77,44.87-57.21,55.58-20.26,13.21-48.13,17.07-72.25,15.21-8.88-.68-16-2.65-22.38-7.52a50.77,50.77,0,0,1-19.65-41.2,312.42,312.42,0,0,1,7-60.85l67-310.81,2.73-13.67q2.73-14.44,2.73-19.92a19.09,19.09,0,0,0-3.91-12.3q-3.91-4.87-10.94-4.88-10.93,0-24.61,13.28t-34.38,44.53q-32,47.65-69.92,132.42-29.68,66.79-50.59,129.88a1199.22,1199.22,0,0,0-34.18,124.8H663.2l90.62-424.22q4.29-19.92,4.3-31.25a25.24,25.24,0,0,0-2-9.77,15.8,15.8,0,0,0-5.27-7,12.88,12.88,0,0,0-7.62-2.34q-18.36,0-44.92,35.74T635.47,695.55q-17.19,34-33.2,71.09t-28.52,69.14q-12.51,32-28.12,78.12Q523,981.09,512.82,1023.28H480l1.17-5.47L498,951q9-38.28,15.62-68,30.85-139.83,45.31-228.52Q571,585,571,554.13q0-22.65-6.84-35t-18.95-12.3q-29.68,0-52.73,78.91c-7.53,25.84-17.84,54.58-6.85,79.31,4,9,5,12,14,25l-14-1c-13-2-40-26-36-50,4.55-27.32,4.72-33.69,13.36-56.44q15.42-40.62,36.72-64.26t43.16-23.63q25,0,39.26,26.56T596.41,594q0,38.67-7,87.89-2,14.46-12.5,73.44l-15.62,85.16,2.34-7.42q28.13-76.56,81.64-180.47,33.59-64.46,62.3-97.46t52.15-33a30.94,30.94,0,0,1,24.61,11.52q9.76,11.52,9.77,29.49,0,18.36-7.42,53.12L741.34,832.65q5.07-14.45,23.44-55.47,53.52-118.74,91.41-171.29t69.92-52.54q16,0,25.59,11.13T961.27,594q0,14.85-6.64,44.92l-71,337.45c-4,19.08.23,36,24.72,39.4l.1,0c30.95.85,35.22-3.46,62.2-29.47.21-.21.56-.54,1-1a251.73,251.73,0,0,1,40-30.29c25.09-15.34,68.81-24.45,61.14-4.5" transform="translate(-246.65 -96.23)"/><g id="Layer_1" data-name="Layer 1"><path class="cls-1" d="M275.09,257l11.92-4.6c20.22-7.79,20.22-7.79,47.06-24.71L376,193.65c7.81-5.73,25.17-20.77,32.17-27.47,15-14.37,50.23-43.14,91.91-43.45,13.11-.1,28.71,11.11,33.41,16.89,12.57,15.43,9.69,20.57,9.29,62.4a109.23,109.23,0,0,1-1.29,16c-.1.66-.21,1.28-.31,1.85l-4.63,30.89-.07.55v0a3.36,3.36,0,0,0,5.7,2.79,675,675,0,0,1,57.41-50.27q32.22-25,58.4-37.11t48-12.11q23,0,36.52,15.62t13.48,43q0,30.87-20.9,69.34t-59.57,79.1q-36,38.05-66.54,60.43a3.37,3.37,0,0,0,2.17,6.07c1.16-.06,1.91-.09,2.26-.09q42.18,0,69.14,25t27,64.84q0,39.84-23.05,78.52T622.85,662.9q-44.93,30.87-104.69,30.86c-26.41,0-47-11.57-55.56-24.66-15-23-5-55,2-73l14.74,42.37,6.07,17.45a3.38,3.38,0,0,1,4.06,2.28c2.87,9.27,6.35,11.07,8.38,12.7,10.68,8.58,25.39,8.4,38.67,8.4q35.16,0,65.43-21.29t48.44-56.64a163,163,0,0,0,18.16-75.59q0-25.38-9.18-43.55a67,67,0,0,0-26-28.12q-16.8-10-39.45-10a98.9,98.9,0,0,0-21.08,2.68,3.37,3.37,0,0,1-4-4l2.55-12.48a3.37,3.37,0,0,1,1.6-2.23q34.08-19.76,66.67-50.62,33.2-31.44,55.86-65.82,30.07-45.32,30.08-82.81,0-22.65-11.91-36.33t-31.45-13.67q-35.16,0-90.62,45.7Q554.17,255.87,532,283.69a3.4,3.4,0,0,0-.69,1.55l-1,6.16Q524,334,512.51,383.78T484.78,488.47q-16.21,54.88-32.23,99.8-18.75,52.35-36.33,77.54T381.45,691q-26.56,0-26.56-44.53,0-29.68,11.13-76.37A660,660,0,0,1,394,480.85q40-102.18,98.59-170a3.39,3.39,0,0,0,.78-1.68q3.45-22.74,6.89-53.74c2.48-24.3,2.26-14.31,5.31-56.26,1.19-16.39-1.8-47.18-18.15-47.57-27.15-.65-117.74,75.27-160.15,99.11C276.2,279.43,275.09,257,275.09,257ZM487.32,346.6a3.37,3.37,0,0,0-6-2.57q-25.41,33.32-48.91,78.63A646.64,646.64,0,0,0,388.45,529.3a660.65,660.65,0,0,0-16.6,64.84q-6.45,32-6.45,49.22,0,24.61,12.11,24.61,8.6-.39,16.41-12.3t19.53-41.21q6.24-15.62,14.45-39.45t15-45.9q6.82-22.07,14.84-51.76t11.91-46.09Q481.59,382.11,487.32,346.6Z" transform="translate(-246.65 -96.23)"/></g></g><g id="Layer_1-2" data-name="Layer 1"><g id="Layer_2" data-name="Layer 2"><path class="cls-2" d="M889.36,996.74l.1,0c30.95.85,35.22-3.46,62.2-29.47.21-.21.56-.54,1-1a251.73,251.73,0,0,1,40-30.29c25.09-15.34,68.81-24.45,61.14-4.5h0c-8.93-11.28-55,26.41-56.56,28.27-3.9,4.56-40.77,44.87-57.21,55.58-20.26,13.21-48.13,17.07-72.25,15.21-8.88-.68-16-2.65-22.38-7.52a50.77,50.77,0,0,1-19.65-41.2,312.42,312.42,0,0,1,7-60.85l67-310.81,2.73-13.67q2.73-14.44,2.73-19.92a19.09,19.09,0,0,0-3.91-12.3q-3.91-4.87-10.94-4.88-10.93,0-24.61,13.28t-34.38,44.53q-32,47.65-69.92,132.42-29.68,66.79-50.59,129.88a1199.22,1199.22,0,0,0-34.18,124.8H644.2l90.62-424.22q4.29-19.92,4.3-31.25a25.24,25.24,0,0,0-2-9.77,15.8,15.8,0,0,0-5.27-7,12.88,12.88,0,0,0-7.62-2.34q-18.36,0-44.92,35.74T616.47,676.55q-17.19,34-33.2,71.09t-28.52,69.14q-12.51,32-28.12,78.12Q504,962.09,493.82,1004.28H461l1.17-5.47L479,932q9-38.28,15.62-68,30.85-139.83,45.31-228.52Q552,566,552,535.13q0-22.65-6.84-35t-18.95-12.3q-29.69,0-52.73,78.91c-7.53,25.84-17.84,54.58-6.85,79.31,4,9,4.43,9.76,13.43,22.76l-13.43,1.24c-13-2-40-26-36-50,4.55-27.32,4.72-33.69,13.36-56.44q15.42-40.62,36.72-64.26t43.16-23.63q25,0,39.26,26.56T577.41,575q0,38.67-7,87.89-2,14.46-12.5,73.44l-15.62,85.16,2.34-7.42q28.13-76.56,81.64-180.47,33.59-64.46,62.3-97.46t52.15-33a30.94,30.94,0,0,1,24.61,11.52q9.76,11.52,9.77,29.49,0,18.36-7.42,53.12L722.34,813.65q5.07-14.45,23.44-55.47,53.52-118.74,91.41-171.29t69.92-52.54q16,0,25.59,11.13T942.27,575q0,14.85-6.64,44.92l-71,337.45C860.63,976.42,864.87,993.36,889.36,996.74Z" transform="translate(-246.65 -96.23)"/></g><g id="Layer_1-3" data-name="Layer 1"><path class="cls-2" d="M462.13,615.18c7.15,22.52,14.69,35.09,16.72,36.72,10.68,8.58,25.39,8.4,38.67,8.4q35.16,0,65.43-21.29t48.44-56.64a163,163,0,0,0,18.16-75.59q0-25.38-9.18-43.55a67,67,0,0,0-26-28.12q-16.8-10-39.45-10a98.9,98.9,0,0,0-21.08,2.68,3.37,3.37,0,0,1-4-4l2.55-12.48a3.37,3.37,0,0,1,1.6-2.23q34.08-19.76,66.67-50.62,33.2-31.44,55.86-65.82,30.07-45.32,30.08-82.81,0-22.65-11.91-36.33t-31.45-13.67q-35.16,0-90.62,45.7Q535.17,236.87,513,264.69a3.4,3.4,0,0,0-.69,1.55l-1,6.16Q505,315,493.51,364.78T465.78,469.47q-16.21,54.88-32.23,99.8-18.75,52.35-36.33,77.54T362.45,672q-26.56,0-26.56-44.53,0-29.68,11.13-76.37A660,660,0,0,1,375,461.85q40-102.18,98.59-170a3.39,3.39,0,0,0,.78-1.68q3.45-22.74,6.89-53.74c2.48-24.3,2.26-14.31,5.31-56.26,1.19-16.39-1.8-47.18-18.15-47.57-27.15-.65-117.74,75.27-160.15,99.11-51,28.69-52.13,6.28-52.13,6.28l11.92-4.6c20.22-7.79,20.22-7.79,47.06-24.71L357,174.65c7.81-5.73,25.17-20.77,32.17-27.47,15-14.37,50.23-43.14,91.91-43.45,13.11-.1,28.71,11.11,33.41,16.89,12.57,15.43,9.69,20.57,9.29,62.4a109.23,109.23,0,0,1-1.29,16c-.1.66-.21,1.28-.31,1.85l-4.63,30.89-.07.55v0a3.36,3.36,0,0,0,5.7,2.79,675,675,0,0,1,57.41-50.27q32.22-25,58.4-37.11t48-12.11q23,0,36.52,15.62t13.48,43q0,30.87-20.9,69.34t-59.57,79.1q-36,38.05-66.54,60.43a3.37,3.37,0,0,0,2.17,6.07c1.16-.06,1.91-.09,2.26-.09q42.18,0,69.14,25t27,64.84q0,39.84-23.05,78.52T603.85,643.9q-44.93,30.87-104.69,30.86c-26.41,0-47.05-6.85-55.59-19.94-15-23-13.32-24.26-12.33-38.34M468.32,327.6a3.37,3.37,0,0,0-6-2.57q-25.41,33.32-48.91,78.63A646.64,646.64,0,0,0,369.45,510.3a660.65,660.65,0,0,0-16.6,64.84q-6.45,32-6.45,49.22,0,24.61,12.11,24.61,8.6-.39,16.41-12.3t19.53-41.21q6.24-15.62,14.45-39.45t15-45.9q6.82-22.07,14.84-51.76t11.91-46.09Q462.59,363.11,468.32,327.6Z" transform="translate(-246.65 -96.23)"/></g></g><g id="Layer_8" data-name="Layer 8"><g id="Layer_2-2" data-name="Layer 2"><path class="cls-3" d="M530.94,658.49Q533,646.4,534.89,635c8.07-46.35,12.39-72,12.39-92.54,0-15.1-.51-28.9-5.07-37.1-2.64-5.42-4.88-11.7-12.2-13.21-19.38-4-35.16,19.11-50.52,71.71-7.53,25.84-19.17,50.53-8.18,75.26" transform="translate(-246.65 -96.23)"/><path class="cls-3" d="M574.45,661.27c-1.46,10.81-4,28.48-9.52,59.48l-11.64,61.19,10.13-24.21c18.75-51,27.77-64.37,63.45-133.65,22.39-43,40.73-70.81,59.87-92.82s38.81-32.94,54.44-32.94c9.89,0,23,8.64,29.51,16.31s8.78,15.27,8.78,27.24c0,12.24-1.81,29.2-6.75,52.37l-41.3,193.52c3.38-9.63,7.27-23.14,19.52-50.49,35.68-79.16,60.89-123,86.16-158s49-49.74,70.39-49.74c10.68,0,24.21,8.58,30.6,16s8.44,15.12,8.44,27.36c0,9.9-2.32,29.13-6.75,49.18l-70.21,332.8c-4,19.08-4.41,33.79,20.09,37.17l18,.37c9.76-1.88,26.65-11.64,35.66-23.27.19-.24,17.91-16.5,18.4-16.9a206,206,0,0,1,39.42-25.9c14.45-7.27,34.81-12.81,47.22-7.76a12.59,12.59,0,0,1,7.35,14.43l-.85,3.81c-9-12.69-51.62,23.61-53.21,25.46-3.9,4.57-44.63,48.15-60,57.86-21.54,13.64-43.5,15.21-74.75,15.21-9.05,0-25.06-8.48-30.84-16.47-9.39-13-15.17-24.51-14.92-40.55a273.61,273.61,0,0,1,6.48-57L889.47,637l6.62-28c1.82-9.63,3.66-17.61,3.66-21.26,0-4.94,3.3-13.78.7-17S895,564,890.31,564c-7.29,0-10.12-.16-19.23,8.69s-20.57,23.7-34.38,44.53q-32,47.65-69.92,132.42c-19.79,44.53-38.32,88.08-52.25,130.13s-25.13,88.28-34,129.42l-42.43-.27,86.73-402.08c2.86-13.28,6.16-27.86,8.26-42.23-.38-1.64.77-7.52,1.13-14.83.41-8.41-.15-11.22-2.63-12.58s-5.2-3-8.07-3c-12.24,0-21.08,7.42-38.79,31.25s-38.67,60.88-62.89,111.13q-17.19,34-33.2,71.09t-28.52,69.14c-8.34,21.36-20.09,47.44-30.5,78.16-15.11,44.79-25.33,86-32.1,114.13H475.76l-20.88-.53,19.76-77.93c6-25.52,11.52-51.91,15.95-71.71,16.43-74.44,28.73-135.1,37.92-186.62" transform="translate(-246.65 -96.23)"/><path class="cls-3" d="M472.35,671.93c-13-2-43.19-29.86-39.19-53.86,4.55-27.32,6.74-38.12,14.64-61.56,12.35-36.66,18.65-48.06,32.85-63.82s29.71-21.78,44.29-21.78c16.66,0,31.24,8.88,40.75,26.58s16.13,39.36,16.13,70.09a588.4,588.4,0,0,1-4.69,73.72" transform="translate(-246.65 -96.23)"/></g></g><g id="Layer_7" data-name="Layer 7"><g id="Layer_1-4" data-name="Layer 1"><path class="cls-3" d="M462.13,615.18c-.07,18.76,9.69,35.09,11.72,36.72,10.68,8.58,25.39,8.4,38.67,8.4q35.16,0,65.43-21.29t48.44-56.64a163,163,0,0,0,18.16-75.59q0-25.38-9.18-43.55a67,67,0,0,0-26-28.12q-16.8-10-39.45-10a98.9,98.9,0,0,0-21.08,2.68,3.37,3.37,0,0,1-4-4l2.55-12.48a3.37,3.37,0,0,1,1.6-2.23q34.08-19.76,66.67-50.62,33.2-31.44,55.86-65.82,30.07-45.32,30.08-82.81,0-22.65-11.91-36.33c-7.95-9.11-16.38-9.57-29.4-9.57-23.44,0-48.06,15.71-85,46.18-25,20.84-31.39,24.81-46.18,43.36-.36.45-13.4,12.94-13.5,13.51l-2.26,16.05c-4.17,28.39-7.26,49.58-14.93,82.78S481,434,470.23,470.63s-22.26,73.11-32.94,103c-12.5,34.9-25.17,60.35-36.89,77.15s-29.29,25.34-40.75,25.34c-17.71,0-28.76-19-28.76-48.69q0-29.68,11.13-76.37A660,660,0,0,1,370,461.85c26.68-68.12,55.38-119.89,94.43-165.08.23-.27,4.57-2.38,6.32-7.18,1.36-3.74.22-10.41.26-10.69,2.3-15.16,3-21.78,5.25-42.44,2.53-28.46.25-2.89,4.26-42.17.93-9.13,7.95-53.74-8.27-57.49-26.45-6.13-119.78,73.76-162.18,97.6-51,28.69-60.25,1.13-60.25,1.13l16.61-6.76c20.21-7.8,18.49-6.17,45.33-23.09l45.89-37.44c7.81-5.73,27.92-24,34.92-30.69,15-14.37,59.41-41.67,91.5-38.58,14.34,1.39,26.85,11.12,31.55,16.9,12.57,15.43,13.62,12.51,13.22,54.34,0,5.37-.85,22.28-1.69,27.59-.1.66-2.15,16-2.25,16.61L524,219.2h0c1.56,1.26-.29,3.37-.29,3.38-.39,3.15-4.17,10.8-1.9,8.58,20.21-21.82,32.31-28.57,49.9-45.53,21.48-16.66,44.08-32.5,61.53-40.58s36.09-13.89,50.68-13.89c15.36,0,31,3.86,40,14.27s17.27,27.95,17.27,46.18c0,20.58-1.69,42-22.93,76.25-13.93,25.65-35,53.78-60.79,80.86-24.4,24.79-33.88,33.14-54.62,49.74-2.69,2-14.4,7.49-11.07,7.32,1.16-.06,8.28.37,8.63.37,28.12,0,44.3,6.2,63.45,22.53,18,16.67,31.16,39.52,31.16,66.08s-8.1,60.55-23.47,86.34-39.45,48.62-69.26,69.64c-31,20.64-68.65,28.53-108.5,28.53-26.41,0-52.27-21.64-60.81-34.73-15-23,2.1-57.66,9.1-75.66m18.44-225.1c.27-1.68,5.09-15,4.65-16.18s-6.23,9.82-7.32,11.26C440.9,361.07,433,376.79,417.29,407A619.16,619.16,0,0,0,374.5,511.46c-6.77,21.88-12.6,41.44-16.9,62.79s-6.19,38.93-6.19,50.39c0,16.41-1,19.71,7,19.71,5.73-.26,6.25.26,11.47-7.68s11.72-21.68,19.53-41.21q6.24-15.62,14.45-39.45t15-45.9q6.82-22.07,14.84-51.76t11.91-46.09C453.62,379.49,456.68,367.45,460.51,343.78Z" transform="translate(-246.65 -96.23)"/></g></g></svg>